<?xml version="1.0" encoding="utf-8"?>
<!-- Generator: Adobe Illustrator 15.0.0, SVG Export Plug-In  -->
<!DOCTYPE svg PUBLIC "-//W3C//DTD SVG 1.1//EN" "http://www.w3.org/Graphics/SVG/1.1/DTD/svg11.dtd" [
	<!ENTITY ns_flows "http://ns.adobe.com/Flows/1.0/">
]>
<svg version="1.1"
	 xmlns="http://www.w3.org/2000/svg" xmlns:xlink="http://www.w3.org/1999/xlink" xmlns:a="http://ns.adobe.com/AdobeSVGViewerExtensions/3.0/"
	 x="0px" y="0px" width="195px" height="71px" viewBox="-74.058 -6.234 195 71" enable-background="new -74.058 -6.234 195 71"
	 xml:space="preserve">
<defs>
</defs>
<g id="Forma_1_1_">
	<g>
		<path fill-rule="evenodd" clip-rule="evenodd" fill="#FFFFFF" d="M39.831,24.208c-0.014-0.32-0.207-0.604-0.498-0.735
			s-0.631-0.084-0.877,0.119c-0.901,0.743-2.643,1.183-3.943,1.39c-0.011-0.139-0.021-0.278-0.033-0.418
			c-0.01-0.119-0.018-0.209-0.021-0.265c-0.252-3.998-3.271-7.002-7.031-7.002h-0.035c-3.837,0.02-6.976,3.222-6.997,7.138
			c-0.017,3.147-1.017,5.528-2.973,7.075c-4.638,3.669-13.29,1.986-15.831,1.383c-0.428-0.102-0.873,0.02-1.19,0.324
			c-0.317,0.305-0.458,0.745-0.377,1.179c0.133,0.707,0.384,1.828,0.829,3.157c0.119,0.354,0.446,0.577,0.798,0.577
			c0.089,0,0.18-0.015,0.269-0.045c0.44-0.149,0.677-0.629,0.529-1.072c-0.306-0.911-0.512-1.716-0.649-2.338
			c3.295,0.716,11.766,2.04,16.664-1.835c2.379-1.882,3.596-4.707,3.615-8.396c0.016-2.993,2.403-5.439,5.321-5.455h0.027
			c2.857,0,5.156,2.323,5.351,5.416c0.004,0.064,0.013,0.168,0.024,0.305c0.292,3.376,0.192,6.542-0.296,9.41
			c-0.079,0.461,0.229,0.898,0.688,0.977c0.458,0.079,0.893-0.23,0.971-0.691c0.165-0.967,0.287-1.966,0.367-2.991
			c1.101,0.175,2.944,0.574,3.924,1.383c0.152,0.127,0.343,0.192,0.534,0.192c0.116,0,0.233-0.023,0.343-0.073
			c0.291-0.131,0.484-0.415,0.498-0.735c0.006-0.131,0.096-2.599-1.148-3.985C39.926,26.808,39.836,24.339,39.831,24.208z
			 M36.926,29.012c0.6,0.163,0.918,0.87,1.078,1.592c-1.172-0.498-2.487-0.759-3.377-0.89c0.032-0.99,0.027-2.003-0.015-3.036
			c0.862-0.129,2.202-0.393,3.394-0.896c-0.16,0.723-0.479,1.434-1.08,1.598c-0.367,0.1-0.621,0.435-0.621,0.816
			S36.56,28.913,36.926,29.012z M32.753,36.962c-0.442-0.142-0.916,0.105-1.058,0.551c-0.998,3.163-2.547,5.63-4.63,7.395
			c0.833-1.584,1.061-3.446,0.579-5.246c-1.031-3.854-4.997-6.149-8.84-5.115c-0.763,0.205-2.401,1.325-3.311,1.976
			c-2.5,1.793-6.222,2.381-8.218,2.571c-0.81,0.077-1.508,0.561-1.868,1.292c-0.359,0.731-0.317,1.58,0.112,2.271
			c0.226,0.363,0.491,0.761,0.793,1.175c-0.942-1.029-1.78-2.236-2.51-3.623c-0.217-0.413-0.726-0.571-1.138-0.353
			C2.255,40.075,2.099,40.586,2.316,41c2.063,3.922,6.091,8.571,13.648,8.894v7.027c0,0.467,0.376,0.846,0.842,0.846
			c0.465,0,0.842-0.379,0.842-0.846v-7.023c0.77-0.025,1.515-0.088,2.236-0.186v7.208c0,0.468,0.377,0.847,0.842,0.847
			s0.842-0.379,0.842-0.847v-7.511c2.523-0.571,4.71-1.628,6.536-3.163c2.352-1.978,4.101-4.743,5.198-8.221
			C33.442,37.58,33.197,37.104,32.753,36.962z M24.379,45.66c-1.356,1.182-3.209,1.65-4.101,1.876
			c-0.107,0.026-0.201,0.051-0.279,0.071c-7.02,1.89-11.19-2.853-13.05-5.847c-0.17-0.274-0.079-0.528-0.031-0.625
			c0.048-0.097,0.194-0.326,0.518-0.357c2.644-0.252,6.358-0.956,9.036-2.878c1.246-0.89,2.437-1.629,2.77-1.719
			c2.947-0.793,5.987,0.966,6.777,3.92C26.56,42.125,25.932,44.254,24.379,45.66z M14.271,18.961
			c0.052,0.01,0.104,0.015,0.156,0.015c0.229,0,0.449-0.093,0.61-0.263c1.563-1.649,2.827-3.31,3.759-4.932
			c0.232-0.405,0.095-0.923-0.308-1.156s-0.917-0.095-1.15,0.31c-0.803,1.398-1.88,2.835-3.206,4.275
			C6.223,15.602,3.98,12.11,3.349,10.149C2.898,8.75,2.963,7.314,3.525,6.209c0.404-0.793,1.043-1.35,1.847-1.61
			c2.321-0.752,4.131,0.754,4.207,0.818c0.224,0.189,0.53,0.25,0.808,0.158c0.278-0.092,0.49-0.32,0.558-0.605
			c0.023-0.093,0.614-2.374,2.933-3.126c2.161-0.7,4.178,1.137,4.88,3.316c0.448,1.391,0.425,2.962-0.068,4.669
			c-0.13,0.448,0.127,0.918,0.574,1.049c0.446,0.13,0.913-0.128,1.043-0.577c0.589-2.038,0.606-3.943,0.053-5.662
			c-0.507-1.575-1.465-2.901-2.697-3.734c-1.331-0.9-2.858-1.139-4.302-0.671c-2.07,0.671-3.138,2.205-3.646,3.26
			C8.688,2.937,6.927,2.318,4.855,2.989c-1.239,0.401-2.218,1.248-2.83,2.45C1.262,6.94,1.16,8.847,1.747,10.669
			C2.505,13.025,5.141,17.235,14.271,18.961z M51.514,8.869c-0.345-1.074-1.041-1.905-2.012-2.403
			c-1.514-0.777-2.956-0.58-3.884-0.288c-0.306-0.926-0.989-2.214-2.505-2.991c-2.211-1.135-4.993,0.034-6.334,2.662
			c-0.92,1.803-1.828,5.761,2.428,12.013c0.157,0.23,0.418,0.368,0.695,0.368h0.021c7.543-0.195,10.212-3.247,11.131-5.05
			C51.774,11.771,51.942,10.2,51.514,8.869z M49.557,12.407c-0.731,1.435-2.898,3.843-9.217,4.114
			c-3.474-5.297-2.794-8.467-2.063-9.9c0.799-1.564,2.539-2.714,4.07-1.928c1.655,0.85,1.828,2.647,1.834,2.724
			c0.025,0.293,0.199,0.554,0.461,0.686c0.26,0.132,0.57,0.122,0.819-0.031c0.042-0.025,0.784-0.46,1.778-0.46
			c0.459,0,0.973,0.093,1.496,0.361c0.564,0.29,0.971,0.779,1.176,1.417C50.204,10.294,50.075,11.395,49.557,12.407z M28.012,10.887
			c0.137,0.086,0.291,0.13,0.447,0.13c0.121,0,0.242-0.026,0.355-0.079c4.857-2.271,5.736-5.055,5.827-6.512
			c0.063-1.002-0.187-1.969-0.702-2.721c-0.572-0.835-1.416-1.327-2.375-1.388c-1.123-0.07-1.98,0.369-2.54,0.802
			c-0.501-0.5-1.296-1.043-2.42-1.113c-1.859-0.115-3.427,1.504-3.564,3.69C22.95,5.154,23.475,8.026,28.012,10.887z M26.5,1.695
			c1.143,0.072,1.695,1.07,1.701,1.08c0.137,0.262,0.398,0.432,0.691,0.45c0.294,0.02,0.575-0.117,0.744-0.359
			c0.021-0.03,0.637-0.863,1.694-0.863c0.042,0,0.085,0.002,0.128,0.005c0.555,0.034,0.9,0.377,1.094,0.659
			C32.851,3.101,33,3.704,32.961,4.32c-0.109,1.754-1.721,3.519-4.441,4.883c-2.529-1.694-3.908-3.646-3.799-5.4
			C24.79,2.715,25.473,1.628,26.5,1.695z M22.328,39.295c0.333-0.327,0.337-0.863,0.012-1.197c-0.325-0.333-0.856-0.339-1.188-0.014
			c-0.046,0.044-3.839,3.611-11.485,2.843c-0.461-0.048-0.875,0.292-0.921,0.758C8.7,42.15,9.038,42.565,9.5,42.611
			c0.816,0.082,1.594,0.119,2.331,0.119C18.753,42.73,22.172,39.45,22.328,39.295z M23.067,41.958
			c-0.053,0.034-5.411,3.369-12.215,1.314c-0.445-0.135-0.915,0.119-1.048,0.566s0.119,0.92,0.564,1.054
			c1.8,0.544,3.5,0.753,5.048,0.753c4.961,0,8.371-2.142,8.556-2.26c0.392-0.252,0.507-0.775,0.257-1.169
			S23.459,41.708,23.067,41.958z M28.491,25.092c0.466,0,0.842-0.379,0.842-0.847c0-0.467-0.376-0.846-0.842-0.846
			c-0.465,0-0.842,0.379-0.842,0.846C27.649,24.713,28.026,25.092,28.491,25.092z"/>
	</g>
</g>
</svg>
