<?xml version="1.0"?>
<svg xmlns="http://www.w3.org/2000/svg" height="512px" viewBox="0 -26 512.00065 512" width="512px"><path d="m256 299.980469c-5.519531 0-10 4.480469-10 10s4.480469 10 10 10 10-4.480469 10-10-4.480469-10-10-10zm0 0" fill="#a93673"/><path d="m493.792969 113.691406c-.085938-.039062-129.785157-51.28125-129.785157-51.28125s-18.46875-55.394531-18.46875-55.40625c-.078124-.101562-2.097656-7.003906-9.542968-7.003906h-159.988282c-5.546874 0-7.554687 3.199219-9.542968 7.003906-.003906.011719-.007813.019532-.011719.03125l-18.457031 55.375s-129.699219 51.242188-129.789063 51.28125c-14.199219 6.082032-21.429687 21.785156-16.824219 36.519532l90.222657 288.710937c3.9375 12.589844 15.441406 21.046875 28.632812 21.046875h271.523438c13.191406 0 24.699219-8.457031 28.632812-21.046875l90.222657-288.710937c4.609374-14.734376-2.625-30.4375-16.824219-36.519532zm-131.136719-20.015625 60.726562 73.167969-43.640624 22.734375c-2.609376 1.359375-4.484376 3.796875-5.132813 6.664063-.648437 2.867187-.003906 5.875 1.765625 8.222656l19.421875 25.773437-105.300781 152.269531c17.5-49.761718 32.683594-100.921874 45.136718-152.097656 10.945313-44.949218 20.011719-90.839844 27.023438-136.734375zm-17.804688-25.488281-48.371093 64.496094-27.613281-41.414063 62.757812-62.757812zm-32.996093-48.1875-55.855469 55.851562-55.851562-55.851562zm-131.480469 8.511719 62.757812 62.757812-27.609374 41.414063-48.371094-64.496094zm-31.027344 65.164062c14.984375 98.140625 39.226563 195.1875 72.160156 288.835938l-105.304687-152.273438 19.421875-25.773437c1.769531-2.347656 2.417969-5.355469 1.765625-8.222656-.648437-2.867188-2.523437-5.304688-5.132813-6.664063l-43.640624-22.734375zm-29.109375 346.296875c-4.394531 0-8.230469-2.820312-9.542969-7.015625l-90.222656-288.710937c-1.523437-4.871094.839844-10.0625 5.503906-12.125l97.417969-38.488282-58.074219 69.96875c-1.929687 2.328126-2.707031 5.398438-2.109374 8.363282.597656 2.960937 2.503906 5.496094 5.183593 6.894531l44.152344 23-16.660156 22.105469c-2.59375 3.445312-2.691407 8.160156-.238281 11.707031l141.28125 204.300781zm135.761719-19.953125-14.5625-41.121093c-31.140625-87.976563-54.5-179.007813-69.613281-271.148438l36.179687 48.238281c1.949219 2.597657 5.039063 4.105469 8.277344 3.996094 3.242188-.089844 6.242188-1.746094 8.042969-4.449219l21.679687-32.515625v146.960938c0 5.523437 4.476563 10 9.996094 10 5.523438 0 10-4.476563 10-10v-146.960938l21.679688 32.519531c1.800781 2.699219 4.796874 4.359376 8.042968 4.449219 3.238282.113281 6.328125-1.402343 8.277344-3.996093l36.175781-48.238282c-6.496093 39.605469-14.523437 79.121094-23.976562 117.925782-12.546875 51.578124-27.902344 103.128906-45.636719 153.21875zm235.53125-275.769531-90.226562 288.707031c-1.308594 4.195313-5.144532 7.015625-9.542969 7.015625h-116.6875l141.28125-204.300781c2.453125-3.542969 2.355469-8.261719-.238281-11.703125l-16.660157-22.109375 44.152344-23c2.679687-1.398437 4.585937-3.933594 5.183594-6.894531.597656-2.960938-.179688-6.035156-2.109375-8.363282l-58.074219-69.96875 97.417969 38.488282c4.664062 2.0625 7.027344 7.253906 5.503906 12.128906zm0 0" fill="#a93673"/></svg>
