<?xml version="1.0" encoding="iso-8859-1"?>
<!-- Generator: Adobe Illustrator 19.0.0, SVG Export Plug-In . SVG Version: 6.00 Build 0)  -->
<svg xmlns="http://www.w3.org/2000/svg" xmlns:xlink="http://www.w3.org/1999/xlink" version="1.1" id="Capa_1" x="0px" y="0px" viewBox="0 0 377.48 377.48" style="enable-background:new 0 0 377.48 377.48;" xml:space="preserve" width="512px" height="512px">
<g>
	<g>
		<path d="M307.54,36.76h-2.8v-7.4C304.696,13.163,291.577,0.044,275.38,0c-16.197,0.044-29.316,13.163-29.36,29.36v7.4H131.58v-7.4    c-0.034-7.733-3.126-15.138-8.6-20.6c-5.491-5.504-12.945-8.598-20.72-8.6c-16.197-0.045-29.388,13.003-29.52,29.2v7.4h-2.8    C41.473,36.826,18.438,59.933,18.46,88.4v237.64c0.088,28.389,23.091,51.374,51.48,51.44h237.6    c28.404-0.066,51.414-23.076,51.48-51.48V88.4C359.042,59.933,336.007,36.826,307.54,36.76z M257.06,42.52V29.36    c0.044-10.033,8.167-18.156,18.2-18.2c10.033,0.044,18.156,8.167,18.2,18.2v26.32c-0.044,10.033-8.167,18.156-18.2,18.2    c-10.042-0.022-18.178-8.158-18.2-18.2V42.52z M84.06,42.64V29.36c0.044-10.033,8.167-18.156,18.2-18.2    c10.033,0.044,18.156,8.167,18.2,18.2v26.32c-0.044,10.033-8.167,18.156-18.2,18.2c-10.042-0.022-18.178-8.158-18.2-18.2V42.64z     M29.62,88.4c0.088-22.225,18.095-40.214,40.32-40.28h2.8v7.56c0.044,16.197,13.163,29.316,29.36,29.36    c16.197-0.044,29.316-13.163,29.36-29.36v-7.56l114.44-0.04v7.56c0.044,16.197,13.163,29.316,29.36,29.36    c16.228,0.022,29.414-13.092,29.48-29.32v-7.56h2.96c22.241,0.066,40.254,18.079,40.32,40.32v49.6H29.62V88.4z M307.54,366.36    H69.94c-22.241-0.066-40.254-18.079-40.32-40.32V149.2h318.24l0.2,176.96C347.928,348.432,329.812,366.404,307.54,366.36z" fill="#a93673"/>
	</g>
</g>
<g>
	<g>
		<path d="M248.824,180.299c-21.888-5.923-45.235,1.204-60.084,18.341c-21.366-24.66-58.678-27.33-83.339-5.964    c-17.138,14.849-24.265,38.196-18.341,60.084c4.8,20.92,17.4,37.92,35.2,52.28c17.8,14.36,39.6,25.44,64.36,35.64    c1.358,0.56,2.882,0.56,4.24,0c24.76-10.2,47.04-21.68,64.36-35.64c17.32-13.96,30.44-31.36,35.2-52.28    C298.943,221.264,280.32,188.822,248.824,180.299z M280.9,243.8c-0.287,2.106-0.714,4.191-1.28,6.24v0.24    c-4,18.24-15.4,33.24-31.32,46.08c-18.23,13.746-38.273,24.905-59.56,33.16c-21.259-8.262-41.275-19.421-59.48-33.16    c-16-12.84-27.16-28-31.32-46.08v-0.56c-0.522-1.933-0.923-3.897-1.2-5.88c-0.274-2.122-0.408-4.26-0.4-6.4    c-0.042-12.697,4.949-24.894,13.88-33.92l0.04,0.08c18.764-18.727,49.156-18.697,67.882,0.067    c2.236,2.241,4.245,4.697,5.998,7.333c1.675,2.574,5.119,3.302,7.693,1.627c0.65-0.423,1.204-0.977,1.627-1.627    c4.395-6.583,10.344-11.982,17.32-15.72c23.411-12.438,52.472-3.543,64.91,19.868c3.642,6.855,5.567,14.49,5.61,22.252    C281.308,239.54,281.175,241.678,280.9,243.8z" fill="#a93673"/>
	</g>
</g>
<g>
</g>
<g>
</g>
<g>
</g>
<g>
</g>
<g>
</g>
<g>
</g>
<g>
</g>
<g>
</g>
<g>
</g>
<g>
</g>
<g>
</g>
<g>
</g>
<g>
</g>
<g>
</g>
<g>
</g>
</svg>
