<svg height="512pt" viewBox="0 0 512 512" width="512pt" xmlns="http://www.w3.org/2000/svg"><path d="m371.769531 417.429688c-.746093-2.765626-2.914062-4.921876-5.683593-5.652344-1.054688-.277344-106.25-28.582032-171.765626-94.097656-65.472656-65.472657-93.785156-170.570313-94.097656-171.765626-.730468-2.769531-2.886718-4.9375-5.652344-5.6875-2.765624-.75-5.71875.042969-7.746093 2.066407l-67.890625 67.890625c-1.5 1.5-2.34375 3.535156-2.34375 5.660156 0 2.90625 1.1875 72.386719 104.183594 175.382812 102.996093 102.996094 172.476562 104.179688 175.382812 104.179688 2.121094 0 4.15625-.839844 5.660156-2.339844l67.890625-67.894531c2.023438-2.023437 2.808594-4.976563 2.0625-7.742187zm0 0" fill="#dee779"/><path d="m138.410156 373.589844c-102.992187-102.996094-104.179687-172.480469-104.179687-175.386719 0-2.121094.84375-4.15625 2.34375-5.660156l-17.640625 17.640625c-1.5 1.5-2.34375 3.535156-2.34375 5.660156 0 2.90625 1.1875 72.386719 104.183594 175.382812 102.996093 102.996094 172.476562 104.179688 175.382812 104.179688 2.121094 0 4.15625-.839844 5.660156-2.339844l17.636719-17.640625c-1.5 1.5-3.535156 2.34375-5.65625 2.34375-2.90625 0-72.390625-1.1875-175.386719-104.179687zm0 0" fill="#c8d620"/><path d="m431.9375 464.777344-118.808594-118.808594c-3.125-3.125-8.191406-3.125-11.3125 0l-18.09375 18.09375c-33.699218 33.695312-33.699218 88.527344 0 122.222656 16.957032 16.960938 39.5625 25.714844 62.320313 25.714844 16.808593 0 33.707031-4.777344 48.472656-14.542969l35.683594-20.046875c2.183593-1.226562 3.667969-3.402344 4.007812-5.882812.339844-2.484375-.5-4.980469-2.269531-6.75zm0 0" fill="#dee779"/><path d="m418.953125 451.789062-24.441406 13.730469c-14.765625 9.765625-31.660157 14.542969-48.46875 14.542969-22.757813 0-45.359375-8.753906-62.320313-25.714844-12.777344-12.777344-20.699218-28.59375-23.789062-45.144531-5.054688 27.097656 2.867187 56.164063 23.789062 77.082031 16.957032 16.960938 39.5625 25.714844 62.320313 25.714844 16.808593 0 33.707031-4.777344 48.472656-14.542969l35.683594-20.046875c2.183593-1.226562 3.667969-3.402344 4.007812-5.882812.339844-2.480469-.496093-4.980469-2.269531-6.75zm0 0" fill="#d3de4d"/><path d="m47.222656 80.0625c-1.769531-1.773438-4.265625-2.613281-6.75-2.269531-2.480468.339843-4.65625 1.824219-5.882812 4.007812l-20.046875 35.683594c-22.992188 34.757813-18.320313 81.304687 11.171875 110.796875 16.847656 16.847656 38.980468 25.269531 61.109375 25.269531 22.132812 0 44.265625-8.421875 61.113281-25.269531l18.09375-18.09375c3.125-3.125 3.125-8.191406 0-11.316406zm0 0" fill="#dee779"/><path d="m156.242188 189.082031-8.304688 8.300781c-16.847656 16.851563-38.980469 25.273438-61.113281 25.273438-22.132813 0-44.261719-8.421875-61.109375-25.273438-13.09375-13.09375-21.285156-29.550781-24.34375-46.84375-4.894532 27.652344 3.542968 56.9375 24.34375 77.738282 16.847656 16.851562 38.980468 25.273437 61.109375 25.273437 22.132812 0 44.265625-8.421875 61.113281-25.273437l18.09375-18.09375c3.125-3.121094 3.125-8.1875 0-11.3125zm0 0" fill="#d3de4d"/><path d="m445.1875 439.019531c.957031-2.875.207031-6.046875-1.933594-8.1875l-96.179687-96.179687c-2.144531-2.144532-5.316407-2.894532-8.1875-1.933594l-33.945313 11.3125 128.929688 128.929688zm0 0" fill="#e9efa6"/><path d="m179.28125 173.113281c.957031-2.875.207031-6.046875-1.933594-8.1875l-96.179687-96.179687c-2.144531-2.144532-5.3125-2.894532-8.1875-1.933594l-33.945313 11.316406 128.929688 128.929688zm0 0" fill="#e9efa6"/><path d="m267.644531 249.871094h.003907c23.769531-13.808594 56.324218-32.71875 56.324218-69.847656 0-38.28125-25.71875-64.007813-64-64.007813-35.207031-.003906-64.015625 29.222656-64.015625 64.425781v11.582032c0 2.210937 1.792969 4 4 4h24.003907c2.210937 0 4-1.789063 4-4v-12c0-17.410157 13.914062-31.78125 31.320312-32 20.761719-.261719 32.6875 11.433593 32.6875 32 0 17.363281-16.742188 28.429687-40.398438 42.171874-10.304687 5.988282-20.042968 11.640626-26.921874 18.523438-20.109376 20.109375-20.691407 41.003906-20.691407 43.320312 0 8.820313 7.179688 16 16.003907 16h92.011718c2.210938 0 4-1.789062 4-4v-24.003906c0-2.207031-1.789062-4-4-4h-68.824218c1.238281-1.609375 2.617187-3.175781 4.128906-4.6875 3.933594-3.929687 11.914062-8.566406 20.367187-13.476562zm0 0" fill="#ff8660"/><path d="m427.988281 228.03125v-96.015625c0-7.050781-4.726562-13.363281-11.492187-15.351563-6.769532-1.988281-14.15625.769532-17.96875 6.699219l-72.011719 112.015625c-3.667969 5.703125-3.386719 13.1875.972656 18.664063 3.105469 3.894531 7.949219 5.992187 12.929688 5.992187h55.566406v36.003906c0 2.207032 1.792969 4 4 4h24.003906c2.210938 0 4-1.792968 4-4v-36.003906h36.003907c2.210937 0 4-1.792968 4-4.003906v-24c0-2.210938-1.789063-4-4-4zm-58.699219 0 26.695313-41.53125v41.53125zm0 0" fill="#ff8660"/><path d="m504 392.050781h-31.089844c25.605469-40.726562 39.089844-87.503906 39.089844-136.019531 0-68.386719-26.632812-132.683594-74.988281-181.042969-48.359375-48.359375-112.65625-74.988281-181.046875-74.988281-48.523438 0-95.289063 13.484375-136.015625 39.089844v-31.089844c0-4.417969-3.582031-8-8-8s-8.003907 3.582031-8.003907 8v48.007812c0 4.417969 3.585938 8 8.003907 8h48.003906c4.417969 0 8.003906-3.582031 8.003906-8 0-4.417968-3.585937-8-8.003906-8h-23.808594c36.324219-20.988281 77.351563-32.003906 119.820313-32.003906 132.355468 0 240.03125 107.675782 240.03125 240.027344 0 42.460938-11.015625 83.5-32.003906 119.824219v-23.808594c0-4.421875-3.582032-8.003906-8-8.003906-4.417969 0-8 3.582031-8 8.003906v48.003906c0 4.417969 3.582031 8 8 8h48.007812c4.417969 0 8-3.582031 8-8s-3.582031-8-8-8zm0 0" fill="#ffdc75"/></svg>