<?xml version="1.0" encoding="iso-8859-1"?>
<!-- Generator: Adobe Illustrator 19.0.0, SVG Export Plug-In . SVG Version: 6.00 Build 0)  -->
<svg xmlns="http://www.w3.org/2000/svg" xmlns:xlink="http://www.w3.org/1999/xlink" version="1.1" id="Capa_1" x="0px" y="0px" viewBox="0 0 479.954 479.954" style="enable-background:new 0 0 479.954 479.954;" xml:space="preserve" width="512px" height="512px">
<g>
	<g>
		<path d="M399.977,33.9c-1.731,0-3.415,0.561-4.8,1.6l-4.344,3.256c-13.906-9.008-31.806-9.008-45.712,0l-1.144-0.856V19.836    c0-4.418-3.582-8-8-8c-1.731,0-3.415,0.561-4.8,1.6l-4.344,3.256c-13.906-9.008-31.806-9.008-45.712,0l-1.144-0.848V9.9    c0-4.418-3.582-8-8-8c-1.731,0-3.415,0.561-4.8,1.6l-4.344,3.256c-13.906-9.008-31.806-9.008-45.712,0L212.777,3.5    c-3.535-2.651-8.549-1.935-11.2,1.6c-1.039,1.385-1.6,3.069-1.6,4.8v5.944l-1.144,0.856c-13.906-9.008-31.806-9.008-45.712,0    l-4.344-3.256c-3.535-2.651-8.549-1.935-11.2,1.6c-1.039,1.385-1.6,3.069-1.6,4.8v12l-1.144,0.856    c-13.906-9.008-31.806-9.008-45.712,0l-4.344-3.256c-3.535-2.651-8.549-1.935-11.2,1.6c-1.039,1.385-1.6,3.069-1.6,4.8V56.06    c-0.047,22.646,11.63,43.703,30.864,55.656l-12.52,12.528c-2.51,2.509-3.067,6.372-1.368,9.488l95.024,174.224v50.128    l-39.16,78.312c-1.966,3.957-0.352,8.758,3.604,10.724c1.105,0.549,2.322,0.835,3.556,0.836h52.688l29.656,29.656    c3.124,3.123,8.188,3.123,11.312,0l29.656-29.656h52.688c4.418,0.024,8.02-3.538,8.044-7.956c0.007-1.256-0.282-2.496-0.844-3.62    l-39.2-78.312v-50.28l87.2-174.312c1.537-3.08,0.932-6.799-1.504-9.232l-5.744-5.744c19.907-11.796,32.095-33.237,32.048-56.376    V41.9C407.977,37.482,404.395,33.9,399.977,33.9z M373.689,48.668c-3.762,0.84-7.662,0.84-11.424,0    C366.026,47.82,369.928,47.82,373.689,48.668z M334.697,90.972c-3.845-1.162-7.771-2.042-11.744-2.632    c2.729-2.576,5.231-5.381,7.48-8.384C331.519,83.749,332.946,87.436,334.697,90.972z M309.689,26.612    c-3.762,0.84-7.662,0.84-11.424,0C302.026,25.764,305.928,25.764,309.689,26.612z M279.977,35.804c14.44,9.992,33.56,9.992,48,0    v4.256c0.061,17.451-9.053,33.649-24,42.656c-14.947-9.007-24.061-25.205-24-42.656V35.804z M269.305,66.028    c3.157,7.311,7.628,13.982,13.192,19.68c-7.223-3.665-14.889-6.381-22.808-8.08C263.332,74.146,266.559,70.253,269.305,66.028z     M245.689,16.668c-3.762,0.84-7.662,0.84-11.424,0C238.026,15.82,241.928,15.82,245.689,16.668z M215.977,25.868    c14.44,9.992,33.56,9.992,48,0v4.256c0.052,17.442-9.061,33.63-24,42.632c-14.944-9.005-24.058-25.2-24-42.648V25.868z     M210.649,66.028c2.742,4.224,5.963,8.117,9.6,11.6c-7.916,1.698-15.579,4.411-22.8,8.072    C203.018,80.007,207.492,73.339,210.649,66.028z M181.689,26.612c-3.762,0.84-7.662,0.84-11.424,0    C174.026,25.764,177.928,25.764,181.689,26.612z M151.977,35.836c14.44,9.992,33.56,9.992,48,0v4.256    c0.061,17.451-9.053,33.649-24,42.656c-14.947-9.007-24.061-25.205-24-42.656V35.836z M148.105,77.996    c2.205,3.148,4.687,6.093,7.416,8.8c-4.161,0.383-8.287,1.078-12.344,2.08C145.151,85.409,146.801,81.766,148.105,77.996z     M117.689,42.612c-3.762,0.84-7.662,0.84-11.424,0C110.026,41.764,113.928,41.764,117.689,42.612z M87.977,56.06v-4.256    c14.44,9.992,33.56,9.992,48,0v4.256c0.061,17.451-9.053,33.649-24,42.656C97.03,89.709,87.916,73.511,87.977,56.06z     M315.033,431.956h-43.056c-2.122,0-4.156,0.844-5.656,2.344l-26.344,26.344L213.633,434.3c-1.5-1.5-3.534-2.344-5.656-2.344    h-43.056l31.056-62.056h88L315.033,431.956z M199.977,351.956V313.9h80v38.056H199.977z M283.065,297.876h-86.336l-90.864-166.552    l9.264-9.264c14.946-14.852,35.984-21.849,56.848-18.904l13.048,1.864l23.056,146.136l15.792-2.488l-23.096-146.552    c24.255-14.121,54.226-14.121,78.48,0l-23.176,146.536l15.792,2.488l23.104-146.296l4.248-0.712    c21.344-3.55,43.09,3.414,58.4,18.704l8.64,8.64L283.065,297.876z M391.977,62.124c0.052,17.442-9.061,33.63-24,42.632    c-14.944-9.005-24.058-25.2-24-42.648v-4.24c14.44,9.992,33.56,9.992,48,0V62.124z" fill="#a93673"/>
	</g>
</g>
<g>
</g>
<g>
</g>
<g>
</g>
<g>
</g>
<g>
</g>
<g>
</g>
<g>
</g>
<g>
</g>
<g>
</g>
<g>
</g>
<g>
</g>
<g>
</g>
<g>
</g>
<g>
</g>
<g>
</g>
</svg>
