<svg height="511pt" viewBox="0 -20 511.99943 511" width="511pt" xmlns="http://www.w3.org/2000/svg"><path d="m490.234375 20.902344v202.863281c0 11.261719-9.132813 20.394531-20.394531 20.394531h-307.6875c-11.261719 0-20.394532-9.132812-20.394532-20.394531v-202.863281c0-5.902344 2.503907-11.207032 6.507813-14.933594 3.640625-3.390625 8.519531-5.46875 13.886719-5.46875h307.6875c5.542968 0 10.570312 2.210938 14.238281 5.8125 3.796875 3.691406 6.15625 8.863281 6.15625 14.589844zm0 0" fill="#ffb52d"/><path d="m490.234375 20.902344v202.863281c0 11.261719-9.132813 20.394531-20.394531 20.394531h-276.660156c-11.261719 0-20.394532-9.132812-20.394532-20.394531v-202.863281c0-5.902344 2.503906-11.207032 6.503906-14.933594 3.640626-3.390625 8.523438-5.46875 13.890626-5.46875h276.660156c5.542968 0 10.570312 2.210938 14.238281 5.8125 3.796875 3.691406 6.15625 8.863281 6.15625 14.589844zm0 0" fill="#ffc14f"/><path d="m484.078125 6.3125-164.617187 138.742188c-4.035157 3.414062-9.949219 3.351562-13.921876-.132813l-157.273437-138.953125c3.640625-3.390625 8.519531-5.46875 13.886719-5.46875h307.6875c5.542968 0 10.570312 2.210938 14.238281 5.8125zm0 0" fill="#ffd993"/><path d="m501.382812 369.164062-177.691406 90.09375c-23.875 15.195313-54.246094 14.929688-77.742187-.203124-11.027344-7.109376-14.492188-7.796876-72.484375-36.472657-25.769532-12.605469-49.246094-16.621093-87.515625-21.339843v-111.300782h126.902343c7.882813 0 15.433594 3.132813 21.007813 8.707032 1.742187 1.746093-11.578125-11.574219 57.082031 57.070312 5.214844 5.214844 7.796875 12.175781 7.605469 19.066406l1.222656-.839844 186.253907-46.886718c24.679687-3.121094 35.734374 29.171875 15.359374 42.105468zm0 0" fill="#f2bb88"/><path d="m291.652344 391.394531c-9.796875 10.128907-25.910156 10.285157-35.902344.3125l-47.460938-47.46875c-2.53125-2.535156-5.96875-3.957031-9.550781-3.957031h-112.789062v-50.339844h126.90625c7.882812 0 15.433593 3.128906 21.003906 8.699219 1.742187 1.746094-11.578125-11.570313 57.082031 57.070313 9.683594 9.6875 10.375 25.679687.710938 35.683593zm0 0" fill="#f2d1a5"/><path d="m92.300781 286.851562v137.605469c0 1.957031-.1875 3.878907-.527343 5.742188 0 0 0 0-.011719 0-2.710938 14.558593-15.554688 25.675781-30.878907 25.675781h-29.464843c-17.28125 0-31.417969-14.136719-31.417969-31.417969v-137.605469c0-15.398437 11.222656-28.292968 25.894531-30.921874 1.800781-.332032 3.640625-.496094 5.523438-.496094h29.464843c17.28125 0 31.417969 14.136718 31.417969 31.417968zm0 0" fill="#a2abb8"/><path d="m92.300781 286.851562v137.605469c0 1.957031-.1875 3.878907-.527343 5.742188 0 0 0 0-.011719 0-1.800781.328125-3.640625.496093-5.53125.496093h-29.453125c-17.28125 0-31.417969-14.136718-31.417969-31.417968v-137.609375c0-1.953125.183594-3.875.535156-5.738281 1.800781-.332032 3.640625-.496094 5.523438-.496094h29.464843c17.28125 0 31.417969 14.136718 31.417969 31.417968zm0 0" fill="#b9c3cd"/><path d="m64.730469 406.382812c0 10.261719-8.316407 18.582032-18.582031 18.582032-10.261719 0-18.582032-8.320313-18.582032-18.582032 0-10.261718 8.320313-18.582031 18.582032-18.582031 10.265624 0 18.582031 8.320313 18.582031 18.582031zm0 0" fill="#5f6c75"/><path d="m162.152344.5c-5.367188 0-10.246094 2.078125-13.886719 5.46875l24.519531 21.667969v-6.734375c0-5.902344 2.503906-11.207032 6.503906-14.933594 3.640626-3.390625 8.523438-5.46875 13.890626-5.46875zm0 0" fill="#ffcd71"/></svg>