<svg width="180" height="180" viewBox="0 0 180 180" fill="none" xmlns="http://www.w3.org/2000/svg">
  <rect width="180" height="180" rx="40" fill="#020617"/>
  <circle cx="90" cy="90" r="62" fill="#0f172a"/>
  <circle cx="90" cy="90" r="52" stroke="#0ea5e9" stroke-width="10"/>
  <circle cx="90" cy="90" r="36" fill="#020617"/>
  <path d="M78 67.5C78 62.8 83.2 59.9 87.2 62.4L119.8 82.9C123.5 85.2 123.5 90.8 119.8 93.1L87.2 113.6C83.2 116.1 78 113.2 78 108.5V67.5Z" fill="#f8fafc"/>
  <path d="M55 58C46.8 66.2 42 77.6 42 90C42 102.4 46.8 113.8 55 122" stroke="#22c55e" stroke-width="8" stroke-linecap="round"/>
  <path d="M125 58C133.2 66.2 138 77.6 138 90C138 102.4 133.2 113.8 125 122" stroke="#22c55e" stroke-width="8" stroke-linecap="round"/>
  <circle cx="90" cy="90" r="73" stroke="#1e293b" stroke-width="4"/>
</svg>